<svg xmlns="http://www.w3.org/2000/svg" width="43" height="50" viewBox="0 0 43 50">
  <metadata><?xpacket begin="﻿" id="W5M0MpCehiHzreSzNTczkc9d"?>
<x:xmpmeta xmlns:x="adobe:ns:meta/" x:xmptk="Adobe XMP Core 5.6-c142 79.160924, 2017/07/13-01:06:39        ">
   <rdf:RDF xmlns:rdf="http://www.w3.org/1999/02/22-rdf-syntax-ns#">
      <rdf:Description rdf:about=""/>
   </rdf:RDF>
</x:xmpmeta>
                                                                                                    
                                                                                                    
                                                                                                    
                                                                                                    
                                                                                                    
                                                                                                    
                                                                                                    
                                                                                                    
                                                                                                    
                                                                                                    
                                                                                                    
                                                                                                    
                                                                                                    
                                                                                                    
                                                                                                    
                                                                                                    
                                                                                                    
                                                                                                    
                                                                                                    
                                                                                                    
                           
<?xpacket end="w"?></metadata>
<defs>
    <style>
      .cls-1 {
        fill: #eb292d;
        fill-rule: evenodd;
      }
    </style>
  </defs>
  <path id="Forma_1" data-name="Forma 1" class="cls-1" d="M38.907,44.01c-1.734-3.511-1.714-7.15.56-10.342,0.019,0,.038,0,0.056-0.009,2.562-.5,4.3-2.58,1.741-4.27a0.57,0.57,0,0,0-.557-0.252,62.87,62.87,0,0,1-11.235.3,6.975,6.975,0,0,0,1.886-1.8,24.628,24.628,0,0,0,4.418-11.7c0.339-2.751-.448-5.627-3.374-6.411-2.344-.628-5.113.191-7.458,1.085A24.736,24.736,0,0,0,25.4,6.159a4.475,4.475,0,0,0,3.359.219c2.023-.586,4.324-2.37,4.774-4.512a0.615,0.615,0,0,0-.281-0.689C30.481-.217,26.575.636,24.969,3.3a5.81,5.81,0,0,0-.855-1.662,0.425,0.425,0,0,0-.774.325A18.613,18.613,0,0,1,24.255,6.7a30.136,30.136,0,0,1-.16,3.418C21.861,8.1,17.8,7.591,15.533,9.754c-2.583,2.461-1.909,6.338-1.117,9.446A30.784,30.784,0,0,0,17.985,28a6.826,6.826,0,0,0,.692.912,60.451,60.451,0,0,0-6.945.191c-3.085.284-5.761,1.031-7.978,3.268-0.2.2-.383,0.415-0.562,0.633a0.306,0.306,0,0,0-.384.162c-0.052.133-.094,0.265-0.141,0.4a0.27,0.27,0,0,0-.3.245c-0.02.151-.035,0.3-0.051,0.455A11.988,11.988,0,0,0,.735,39.572,9.737,9.737,0,0,0,3.22,46.525c2.429,2.789,5.959,3.239,9.445,3.112,4.745-.174,9.473.3,14.21,0.17,4.84-.131,9.7-1.031,14.548-0.6a0.356,0.356,0,0,0,.28-0.567A2.214,2.214,0,0,0,42.59,47.3C43.248,44.874,40.807,44.109,38.907,44.01ZM24.089,27.915c1.036-.417,1.814.666,2.657,1.383-1.392-.08-2.784-0.165-4.175-0.239A4.727,4.727,0,0,1,24.089,27.915Zm-8.158,2.5a20.807,20.807,0,0,1,2.133-.005q-1.077.008-2.154,0.03A0.231,0.231,0,0,0,15.931,30.419ZM8.863,45.406c-0.128-.054-0.254-0.112-0.383-0.164,0.118,0.018.237,0.032,0.355,0.051,0.178,0.039.357,0.078,0.536,0.114C9.2,45.415,9.032,45.414,8.863,45.406Zm25.4-1.015c-2.547.229-5.172,0.112-7.728,0.127a143.881,143.881,0,0,1-15.2-.308c-2.435-.246-4.383-1.3-5.261-3.675-1.089-2.941.988-5.559,3.613-6.608,4.809-1.92,10.763-.9,15.763-0.5,2.342,0.187,4.679.2,7.026,0.283a51.633,51.633,0,0,0,5.632.13,9.428,9.428,0,0,0-1.249,2.989,118.5,118.5,0,0,1-14.925-.18c-2.5-.114-4.989-0.2-7.488-0.16-1.711.026-3.985-.127-5.539,0.682a0.085,0.085,0,0,0,.02.154c1.707,0.369,3.762-.048,5.518-0.05,2.5,0,5,.143,7.488.278a101.9,101.9,0,0,0,14.771.133,9.172,9.172,0,0,0,.022,2.5c-2.027-.5-4.561-0.068-6.581,0-3.075.105-6.119,0.044-9.193-.016-2.872-.056-5.744.1-8.606-0.124-1-.08-3.1-0.417-3.789.576a0.12,0.12,0,0,0,.135.175,13.137,13.137,0,0,1,4.953.045c2.881,0.367,5.949.124,8.856,0.2,2.557,0.068,5.088.049,7.644-.061a64.961,64.961,0,0,0,6.7-.167,9.884,9.884,0,0,0,1.322,3.191C36.858,44.045,35.559,44.274,34.259,44.391Z"/>
</svg>
