<svg xmlns="http://www.w3.org/2000/svg" width="50" height="50" viewBox="0 0 50 50">
  <metadata><?xpacket begin="﻿" id="W5M0MpCehiHzreSzNTczkc9d"?>
<x:xmpmeta xmlns:x="adobe:ns:meta/" x:xmptk="Adobe XMP Core 5.6-c142 79.160924, 2017/07/13-01:06:39        ">
   <rdf:RDF xmlns:rdf="http://www.w3.org/1999/02/22-rdf-syntax-ns#">
      <rdf:Description rdf:about=""/>
   </rdf:RDF>
</x:xmpmeta>
                                                                                                    
                                                                                                    
                                                                                                    
                                                                                                    
                                                                                                    
                                                                                                    
                                                                                                    
                                                                                                    
                                                                                                    
                                                                                                    
                                                                                                    
                                                                                                    
                                                                                                    
                                                                                                    
                                                                                                    
                                                                                                    
                                                                                                    
                                                                                                    
                                                                                                    
                                                                                                    
                           
<?xpacket end="w"?></metadata>
<defs>
    <style>
      .cls-1 {
        fill: #eb292d;
        fill-rule: evenodd;
      }
    </style>
  </defs>
  <path id="Forma_1" data-name="Forma 1" class="cls-1" d="M12.672,12.871l0.3,1.342L15.3,13.132h0.059v9.424h2.679V10.69h-2.3L12.5,12.122l0,0.009h0ZM48.219,0.745H3.476a1.7,1.7,0,0,0-1.69,1.713V30.673a7.355,7.355,0,0,1,3.393-3.141V4.061H46.428V28.7A7.16,7.16,0,0,1,48.9,34.09c0,0.067-.006.133-0.006,0.2A1.728,1.728,0,0,0,50,32.725V2.459A1.784,1.784,0,0,0,48.219.745ZM15.08,31.107a7.056,7.056,0,0,1,.66,2.985c0,0.108,0,.223-0.008.334h1.762c0-.111-0.01-0.226-0.01-0.334a7.067,7.067,0,0,1,.662-2.985H15.08Zm16.579,0a7.057,7.057,0,0,1,.66,2.985c0,0.108,0,.223-0.008.334h1.762c0-.111-0.008-0.226-0.008-0.334a7.089,7.089,0,0,1,.658-2.985H31.658ZM23.571,12.786V16.8H19.643v1.744h3.928v4.013h1.964V18.543h3.928V16.8H25.535V12.786H23.571Zm7.447,6.671-1.549,1.4v1.7H38.04V20.287H33.395V20.208l1.165-.916c1.765-1.54,3.286-3.173,3.286-5.171,0-2.168-1.521-3.779-4.28-3.779H33.558a6.858,6.858,0,0,0-4,1.263l0.809,2.02a0.036,0.036,0,0,0,.006.008v0.008a4.465,4.465,0,0,1,2.611-.99,1.723,1.723,0,0,1,2.009,1.743C34.954,15.789,33.684,17.128,31.017,19.457ZM8.323,29.364a4.724,4.724,0,1,1,0,9.446A4.724,4.724,0,1,1,8.323,29.364Zm16.579,0a4.724,4.724,0,1,1-4.834,4.723A4.779,4.779,0,0,1,24.9,29.364ZM46.518,40.7H36.438a3.384,3.384,0,0,0-3.264,2.431v0a3.333,3.333,0,0,0-1.844-2.128,3.414,3.414,0,0,0-1.39-.308H19.863a3.4,3.4,0,0,0-3.279,2.431v0a3.314,3.314,0,0,0-1.836-2.128,3.356,3.356,0,0,0-1.383-.308H3.286A3.276,3.276,0,0,0,0,44.014v5.241H49.824V44.012A3.3,3.3,0,0,0,46.518,40.7ZM41.48,29.364a4.724,4.724,0,1,1-4.834,4.723A4.779,4.779,0,0,1,41.48,29.364Z"/>
</svg>
