<svg xmlns="http://www.w3.org/2000/svg" width="44" height="49" viewBox="0 0 44 49">
  <metadata><?xpacket begin="﻿" id="W5M0MpCehiHzreSzNTczkc9d"?>
<x:xmpmeta xmlns:x="adobe:ns:meta/" x:xmptk="Adobe XMP Core 5.6-c142 79.160924, 2017/07/13-01:06:39        ">
   <rdf:RDF xmlns:rdf="http://www.w3.org/1999/02/22-rdf-syntax-ns#">
      <rdf:Description rdf:about=""/>
   </rdf:RDF>
</x:xmpmeta>
                                                                                                    
                                                                                                    
                                                                                                    
                                                                                                    
                                                                                                    
                                                                                                    
                                                                                                    
                                                                                                    
                                                                                                    
                                                                                                    
                                                                                                    
                                                                                                    
                                                                                                    
                                                                                                    
                                                                                                    
                                                                                                    
                                                                                                    
                                                                                                    
                                                                                                    
                                                                                                    
                           
<?xpacket end="w"?></metadata>
<defs>
    <style>
      .cls-1 {
        fill: #eb292d;
        fill-rule: evenodd;
      }
    </style>
  </defs>
  <path id="Forma_1" data-name="Forma 1" class="cls-1" d="M0.675,15.913C1.517,11.884.98,3.451,15.3,1.226S42.515,6.076,39.27,21.542c0,2.819,5.73,7.2,4.35,8.674A5.876,5.876,0,0,1,39.9,31.753s1.523,2.819.838,3.6-2.589.445-2.589,0.445S39.915,37.038,39.915,38s-2.988,2.245-2.988,2.245,0.548,5.334-3.938,4.965-5.242-1.6-5.242-1.6L26.416,49H9.052l0.61-11.721S-1,26,.675,15.913ZM7.431,22.26l4.842,1.054,2.149-1.883-0.76-1.883H7.431V22.26ZM7.655,5.975l-3.58,3.7L7.655,12.6H9.661V10.718L8.515,9.289,8.657,6.9ZM9.661,4.3L9.873,9.486l1.862,2.72,1.219-.442L12.793,8.638l3.132-.954L13.239,3.738ZM21.769,7.875L21.715,3.566,17.1,3.6l-2.174.941,1.4,2.145,1.145,1.585L14.028,9.324v2.161l0.715,1.951,4.44,0.279V12.95l0.834-.349,0.812,2.446L23,15.88l2.945-2.058L24.7,11.659l-1.79.593-0.3-1.046,0.947-.7L22.9,9.287l-3.713,1.221-1.111-.488Zm8.3,1.586H25.7L29.134,8,28.1,6.254,23,4.327V7.335l3.48,0.045L24.123,8.765l2.22,4.184H30.5S30.281,9.461,30.065,9.461Zm0.335,4.36H27.358l-3.937,2.635,2.506,0.976Zm-5.706,6.172V17.622l-1.432-.767-3.58,1.465-2.219.7-0.286-1.082,2.863-1.08-0.214-1.883-4.3.139L11.736,12.95l-3.8,1.116-4.009-2.86L1.783,14.763l5.154,0.348L7.8,17.273l-2.362.278,1.647-.767L6.724,15.669,2.118,15.52l0.364,3.9,4.252,0.023,1.924-1.613,2.721,1.012,2.121-.079-1.836-1.7,4.118-.183-1.468,1.787,1.289,2.79h6.873ZM13.81,26.654l3.876-3.941a22.649,22.649,0,0,1-2.72-.628l-3.3,3.592Z"/>
</svg>
