<svg xmlns="http://www.w3.org/2000/svg" width="48" height="51" viewBox="0 0 48 51">
  <metadata><?xpacket begin="﻿" id="W5M0MpCehiHzreSzNTczkc9d"?>
<x:xmpmeta xmlns:x="adobe:ns:meta/" x:xmptk="Adobe XMP Core 5.6-c142 79.160924, 2017/07/13-01:06:39        ">
   <rdf:RDF xmlns:rdf="http://www.w3.org/1999/02/22-rdf-syntax-ns#">
      <rdf:Description rdf:about=""/>
   </rdf:RDF>
</x:xmpmeta>
                                                                                                    
                                                                                                    
                                                                                                    
                                                                                                    
                                                                                                    
                                                                                                    
                                                                                                    
                                                                                                    
                                                                                                    
                                                                                                    
                                                                                                    
                                                                                                    
                                                                                                    
                                                                                                    
                                                                                                    
                                                                                                    
                                                                                                    
                                                                                                    
                                                                                                    
                                                                                                    
                           
<?xpacket end="w"?></metadata>
<defs>
    <style>
      .cls-1 {
        fill: #eb292d;
        fill-rule: evenodd;
      }
    </style>
  </defs>
  <path id="Forma_1" data-name="Forma 1" class="cls-1" d="M44.069,0.54a2.944,2.944,0,0,0-2.952,2.935V6.791a1.341,1.341,0,0,0-.276-0.056H38.629V5.285a2.066,2.066,0,0,0-4.132,0V6.733H13.121V5.285a2.066,2.066,0,0,0-4.133,0V6.733H6.535a1.344,1.344,0,0,0-.273.055V3.474a2.953,2.953,0,0,0-5.906,0V47.51a2.954,2.954,0,0,0,5.908,0V44.192a1.342,1.342,0,0,0,.273.056H28.213v1.637a2.067,2.067,0,0,0,4.135,0V44.248H34.5v1.637a2.066,2.066,0,0,0,4.132,0V44.248h2.212a1.385,1.385,0,0,0,.276-0.056V47.51a2.954,2.954,0,0,0,5.907,0V3.474A2.948,2.948,0,0,0,44.069.54ZM41.117,41.085a1.308,1.308,0,0,0-.276-0.057H38.629V39.6a2.066,2.066,0,0,0-4.132,0v1.428H32.348V39.6a2.067,2.067,0,0,0-4.135,0v1.428H6.535a1.26,1.26,0,0,0-.273.057V32.76a1.473,1.473,0,0,0,.273.056H8.987V34.66a2.066,2.066,0,0,0,4.132,0V32.816H15.27v1.846a2.068,2.068,0,0,0,4.135,0V32.816h2.61v1.846a2.068,2.068,0,0,0,4.137,0V32.816H28.3v1.846a2.067,2.067,0,0,0,4.133,0V32.816h8.4a1.64,1.64,0,0,0,.276-0.053v8.322h0Zm0-11.432a1.516,1.516,0,0,0-.276-0.056h-8.4V28.372a2.067,2.067,0,0,0-4.133,0V29.6H26.155V28.372a2.068,2.068,0,0,0-4.137,0V29.6h-2.61V28.372a2.067,2.067,0,0,0-4.134,0V29.6H13.121V28.372a2.066,2.066,0,0,0-4.133,0V29.6H6.535a1.457,1.457,0,0,0-.273.056V21.329a1.577,1.577,0,0,0,.273.055H8.987v1.558a2.066,2.066,0,0,0,4.132,0V21.384H15.27v1.558a2.067,2.067,0,0,0,4.135,0V21.384H40.839a1.567,1.567,0,0,0,.275-0.055v8.323h0Zm0-11.433a1.666,1.666,0,0,0-.276-0.052H19.407V16.656a2.067,2.067,0,0,0-4.135,0v1.511H13.121V16.656a2.066,2.066,0,0,0-4.133,0v1.511H6.535a1.6,1.6,0,0,0-.273.052V9.9a1.437,1.437,0,0,0,.273.056H8.987v1.618a2.066,2.066,0,0,0,4.132,0V9.954H34.494v1.618a2.067,2.067,0,0,0,4.133,0V9.954h2.212A1.431,1.431,0,0,0,41.114,9.9V18.22h0Z"/>
</svg>
