<?xml version="1.0" encoding="iso-8859-1"?>
<!-- Generator: Adobe Illustrator 21.0.0, SVG Export Plug-In . SVG Version: 6.00 Build 0)  -->
<svg xmlns="http://www.w3.org/2000/svg" xmlns:xlink="http://www.w3.org/1999/xlink" version="1.1" id="Capa_1" x="0px" y="0px" viewBox="0 0 512 512" style="enable-background:new 0 0 512 512;" xml:space="preserve" width="512" height="512">
<g>
	<path style="fill:#4BB9EC;" d="M256,0C115.3,0,0,115.3,0,256s115.3,256,256,256s256-115.3,256-256S396.7,0,256,0z"/>
	<path style="fill:#0095FF;" d="M512,256c0,140.7-115.3,256-256,256V0C396.7,0,512,115.3,512,256z"/>
	<path style="fill:#DEECF1;" d="M256,61C148.599,61,61,148.599,61,256c0,107.399,87.599,195,195,195s195-87.601,195-195   C451,148.599,363.401,61,256,61z"/>
	<path style="fill:#C5D3DD;" d="M451,256c0,107.399-87.599,195-195,195V61C363.401,61,451,148.599,451,256z"/>
	<path style="fill:#537983;" d="M391,256c0,8.399-6.599,15-15,15H256c-8.401,0-15-6.601-15-15V136c0-8.401,6.599-15,15-15   s15,6.599,15,15v105h105C384.401,241,391,247.599,391,256z"/>
	<path style="fill:#3E5959;" d="M391,256c0,8.399-6.599,15-15,15H256V121c8.401,0,15,6.599,15,15v105h105   C384.401,241,391,247.599,391,256z"/>
</g>















</svg>
