<?xml version="1.0" encoding="iso-8859-1"?>
<!-- Generator: Adobe Illustrator 19.0.0, SVG Export Plug-In . SVG Version: 6.00 Build 0)  -->
<svg version="1.1" id="Layer_1" xmlns="http://www.w3.org/2000/svg" xmlns:xlink="http://www.w3.org/1999/xlink" x="0px" y="0px"
	 viewBox="0 0 512 512" style="enable-background:new 0 0 512 512;" xml:space="preserve">
<g>
	<circle style="fill:#A0EBFF;" cx="256" cy="256" r="256"/>
	<path style="fill:#A4B830;" d="M360.55,381.716c0,8.929-7.24,16.169-16.169,16.169H167.619c-8.929,0-16.169-7.24-16.169-16.169
		v-240.65c0-8.929,7.24-16.169,16.169-16.169h176.758c8.929,0,16.169,7.24,16.169,16.169v240.65H360.55z"/>
	<path style="fill:#C2D64A;" d="M360.55,370.934c0,8.929-7.24,16.169-16.169,16.169H167.619c-8.929,0-16.169-7.24-16.169-16.169
		v-240.65c0-8.929,7.24-16.169,16.169-16.169h176.758c8.929,0,16.169,7.24,16.169,16.169v240.65H360.55z"/>
	<path style="fill:#A4B830;" d="M344.381,114.115H256v272.988h88.381c8.929,0,16.169-7.24,16.169-16.169v-240.65
		C360.55,121.354,353.311,114.115,344.381,114.115z"/>
	<path style="fill:#FFF466;" d="M173.112,252.59h43.238v-43.238h-43.238V252.59z M234.383,252.59h43.238v-43.238h-43.238V252.59z
		 M295.654,209.352v43.238h43.238v-43.238H295.654z M173.112,308.157h43.238v-43.238h-43.238V308.157z M234.383,308.157h43.238
		v-43.238h-43.238V308.157z M295.654,308.157h43.238v-43.238h-43.238L295.654,308.157L295.654,308.157z M173.112,363.725h43.238
		v-43.238h-43.238V363.725z M234.383,363.725h43.238v-43.238h-43.238V363.725z M295.654,363.725h43.238v-43.238h-43.238
		L295.654,363.725L295.654,363.725z"/>
	<rect x="256" y="264.919" style="fill:#FDC00F;" width="21.617" height="43.238"/>
	<rect x="256" y="320.461" style="fill:#FDC00F;" width="21.617" height="43.238"/>
	<rect x="256" y="209.352" style="fill:#FDC00F;" width="21.617" height="43.238"/>
	<rect x="295.654" y="320.461" style="fill:#D94000;" width="43.238" height="43.238"/>
	<rect x="295.654" y="209.352" style="fill:#FDC00F;" width="43.238" height="43.238"/>
	<rect x="295.654" y="264.919" style="fill:#FDC00F;" width="43.238" height="43.238"/>
	<rect x="173.112" y="139.11" style="fill:#2C5871;" width="165.78" height="47.309"/>
	<rect x="256" y="139.11" style="fill:#0F303F;" width="82.888" height="47.309"/>
</g>
<g>
</g>
<g>
</g>
<g>
</g>
<g>
</g>
<g>
</g>
<g>
</g>
<g>
</g>
<g>
</g>
<g>
</g>
<g>
</g>
<g>
</g>
<g>
</g>
<g>
</g>
<g>
</g>
<g>
</g>
</svg>
