<svg xmlns="http://www.w3.org/2000/svg" width="51" height="50" viewBox="0 0 51 50">
  <metadata><?xpacket begin="﻿" id="W5M0MpCehiHzreSzNTczkc9d"?>
<x:xmpmeta xmlns:x="adobe:ns:meta/" x:xmptk="Adobe XMP Core 5.6-c142 79.160924, 2017/07/13-01:06:39        ">
   <rdf:RDF xmlns:rdf="http://www.w3.org/1999/02/22-rdf-syntax-ns#">
      <rdf:Description rdf:about=""/>
   </rdf:RDF>
</x:xmpmeta>
                                                                                                    
                                                                                                    
                                                                                                    
                                                                                                    
                                                                                                    
                                                                                                    
                                                                                                    
                                                                                                    
                                                                                                    
                                                                                                    
                                                                                                    
                                                                                                    
                                                                                                    
                                                                                                    
                                                                                                    
                                                                                                    
                                                                                                    
                                                                                                    
                                                                                                    
                                                                                                    
                           
<?xpacket end="w"?></metadata>
<defs>
    <style>
      .cls-1 {
        fill: #eb292d;
        fill-rule: evenodd;
      }
    </style>
  </defs>
  <path id="Forma_1" data-name="Forma 1" class="cls-1" d="M34.853,31.926a4.708,4.708,0,1,0-4.709-4.708A4.713,4.713,0,0,0,34.853,31.926ZM47.409,0.54H3.462A3.139,3.139,0,0,0,.322,3.679V31.926a3.148,3.148,0,0,0,3.139,3.139H27.005V47.62a1.569,1.569,0,0,0,2.512,1.255l5.336-4,5.336,4A1.569,1.569,0,0,0,42.7,47.619V35.065h4.709a3.148,3.148,0,0,0,3.139-3.139V3.679A3.148,3.148,0,0,0,47.409.54ZM29.872,33.209A1.568,1.568,0,0,0,28.86,32.2l-1.689-.545,0.372-1.736a1.567,1.567,0,0,0-.37-1.381l-1.19-1.317,1.19-1.317a1.567,1.567,0,0,0,.37-1.381l-0.372-1.736,1.689-.545a1.569,1.569,0,0,0,1.012-1.012l0.546-1.691,1.736,0.373a1.567,1.567,0,0,0,1.383-.37l1.317-1.191L36.17,19.54a1.561,1.561,0,0,0,1.383.37l1.736-.373,0.546,1.691a1.569,1.569,0,0,0,1.012,1.012l1.689,0.545L42.164,24.52a1.568,1.568,0,0,0,.37,1.381l1.19,1.317-1.19,1.317a1.567,1.567,0,0,0-.37,1.381l0.372,1.736-1.689.545a1.567,1.567,0,0,0-1.012,1.012L39.289,34.9l-1.736-.374a1.569,1.569,0,0,0-1.383.37l-1.317,1.192L33.536,34.9a1.57,1.57,0,0,0-1.383-.37l-1.736.374ZM8.17,6.817H39.562a1.569,1.569,0,1,1,0,3.139H8.17A1.569,1.569,0,1,1,8.17,6.817Zm0,7.847h15.7a1.569,1.569,0,1,1,0,3.139H8.17A1.569,1.569,0,1,1,8.17,14.664Zm9.417,10.985H8.17a1.569,1.569,0,1,1,0-3.138h9.417A1.569,1.569,0,1,1,17.588,25.649Z"/>
</svg>
