<svg height="512pt" viewBox="0 0 512 512" width="512pt" xmlns="http://www.w3.org/2000/svg"><path d="m512 256c0 141.386719-114.613281 256-256 256s-256-114.613281-256-256 114.613281-256 256-256 256 114.613281 256 256zm0 0" fill="#00e9f3"/><path d="m512 256c0-37.945312-8.265625-73.960938-23.078125-106.351562l-38.851563-38.847657h-388.144531v286.398438l94.863281 94.863281c30.511719 12.835938 64.03125 19.9375 99.210938 19.9375 141.386719 0 256-114.613281 256-256zm0 0" fill="#00b8c0"/><path d="m61.925781 110.800781h388.144531v286.394531h-388.144531zm0 0" fill="#ff8a00"/><path d="m256 110.800781h194.070312v286.398438h-194.070312zm0 0" fill="#da6100"/><path d="m80.121094 128.546875h351.761718v250.90625h-351.761718zm0 0" fill="#ffdca8"/><path d="m256 128.539062h175.878906v250.921876h-175.878906zm0 0" fill="#ffc56e"/><path d="m364.292969 345.660156-17.214844 69.496094-11.421875-16.277344-17.699219 9.074219 17.214844-69.496094zm0 0" fill="#00347b"/><path d="m360.292969 345.660156 17.210937 69.496094 11.425782-16.277344 17.695312 9.074219-17.210938-69.496094zm0 0" fill="#00347b"/><path d="m188.832031 147.238281h134.332031v30h-134.332031zm0 0" fill="#ff8a00"/><path d="m256 147.238281h67.171875v30h-67.171875zm0 0" fill="#da6100"/><path d="m136.167969 198.285156h54.167969v30h-54.167969zm0 0" fill="#ffb844"/><path d="m209.832031 198.285156h123v30h-123zm0 0" fill="#ffb844"/><g fill="#ff9b00"><path d="m256 198.289062h76.828125v30h-76.828125zm0 0"/><path d="m348.75 198.285156h27.082031v30h-27.082031zm0 0"/><path d="m321.667969 245.589844h54.167969v30h-54.167969zm0 0"/></g><path d="m136.167969 245.589844h164.667969v30h-164.667969zm0 0" fill="#ffb844"/><path d="m256 245.589844h44.828125v30h-44.828125zm0 0" fill="#ff9b00"/><path d="m136.167969 292.890625h94.832031v30h-94.832031zm0 0" fill="#ffb844"/><path d="m401.996094 332.460938c0 21.929687-17.773438 39.707031-39.703125 39.707031-21.929688 0-39.707031-17.777344-39.707031-39.707031 0-21.929688 17.777343-39.707032 39.707031-39.707032 21.929687 0 39.703125 17.777344 39.703125 39.707032zm0 0" fill="#046eff"/><path d="m388.996094 332.460938c0 14.75-11.953125 26.707031-26.703125 26.707031s-26.707031-11.957031-26.707031-26.707031 11.957031-26.707032 26.707031-26.707032 26.703125 11.957032 26.703125 26.707032zm0 0" fill="#ff9b00"/></svg>