<svg xmlns="http://www.w3.org/2000/svg" width="61" height="51" viewBox="0 0 61 51">
  <metadata><?xpacket begin="﻿" id="W5M0MpCehiHzreSzNTczkc9d"?>
<x:xmpmeta xmlns:x="adobe:ns:meta/" x:xmptk="Adobe XMP Core 5.6-c142 79.160924, 2017/07/13-01:06:39        ">
   <rdf:RDF xmlns:rdf="http://www.w3.org/1999/02/22-rdf-syntax-ns#">
      <rdf:Description rdf:about=""/>
   </rdf:RDF>
</x:xmpmeta>
                                                                                                    
                                                                                                    
                                                                                                    
                                                                                                    
                                                                                                    
                                                                                                    
                                                                                                    
                                                                                                    
                                                                                                    
                                                                                                    
                                                                                                    
                                                                                                    
                                                                                                    
                                                                                                    
                                                                                                    
                                                                                                    
                                                                                                    
                                                                                                    
                                                                                                    
                                                                                                    
                           
<?xpacket end="w"?></metadata>
<defs>
    <style>
      .cls-1 {
        fill: #eb292d;
        fill-rule: evenodd;
      }
    </style>
  </defs>
  <path id="Forma_1" data-name="Forma 1" class="cls-1" d="M14.017,37.889H16.68a0.629,0.629,0,0,0,.666-0.666V34.561a0.629,0.629,0,0,0-.666-0.666H14.017a0.629,0.629,0,0,0-.666.666v2.663A0.713,0.713,0,0,0,14.017,37.889Zm0,5.192H16.68a0.629,0.629,0,0,0,.666-0.666V39.753a0.629,0.629,0,0,0-.666-0.666H14.017a0.629,0.629,0,0,0-.666.666v2.662A0.629,0.629,0,0,0,14.017,43.081Zm5.459-5.192h2.663a0.629,0.629,0,0,0,.666-0.666V34.561a0.629,0.629,0,0,0-.666-0.666H19.476a0.629,0.629,0,0,0-.666.666v2.663A0.713,0.713,0,0,0,19.476,37.889Zm0,5.192h2.663a0.629,0.629,0,0,0,.666-0.666V39.753a0.629,0.629,0,0,0-.666-0.666H19.476a0.629,0.629,0,0,0-.666.666v2.662A0.629,0.629,0,0,0,19.476,43.081Zm19.7-5.192h2.663a0.629,0.629,0,0,0,.666-0.666V34.561a0.629,0.629,0,0,0-.666-0.666H39.18a0.629,0.629,0,0,0-.666.666v2.663A0.713,0.713,0,0,0,39.18,37.889Zm0,5.192h2.663a0.629,0.629,0,0,0,.666-0.666V39.753a0.629,0.629,0,0,0-.666-0.666H39.18a0.629,0.629,0,0,0-.666.666v2.662A0.629,0.629,0,0,0,39.18,43.081Zm5.459-5.192H47.3a0.629,0.629,0,0,0,.666-0.666V34.561a0.629,0.629,0,0,0-.666-0.666H44.639a0.629,0.629,0,0,0-.666.666v2.663A0.713,0.713,0,0,0,44.639,37.889Zm0,5.192H47.3a0.629,0.629,0,0,0,.666-0.666V39.753a0.629,0.629,0,0,0-.666-0.666H44.639a0.629,0.629,0,0,0-.666.666v2.662A0.629,0.629,0,0,0,44.639,43.081ZM60.616,26.307l-5.592-9.586a2.078,2.078,0,0,0-1.731-1.065H39.846V12.062l1.331,0.932a2.147,2.147,0,0,0,1.2.4,1.9,1.9,0,0,0,1.6-.8,2.066,2.066,0,0,0-.4-2.8L31.858,1.278a2,2,0,0,0-2.4,0L17.745,9.8a2,2,0,1,0,2.4,3.2l1.331-.932v3.594H8.026A2.078,2.078,0,0,0,6.3,16.721L0.57,26.573a1.814,1.814,0,0,0,0,2A2.078,2.078,0,0,0,2.3,29.635H6.428V48.273a2.047,2.047,0,0,0,2,2H52.894a2.047,2.047,0,0,0,2-2V29.635h4.127a2.048,2.048,0,0,0,2-2A2.247,2.247,0,0,0,60.616,26.307ZM30.66,5.4l5.192,3.728v6.39H25.467V9.133ZM50.9,46.276H36.251V38.421a5.483,5.483,0,0,0-5.459-5.458,5.572,5.572,0,0,0-5.459,5.458v7.855H10.689V29.635H51.163L50.9,46.276h0Z"/>
</svg>
